# xmcd
#
# Track frame offsets: 
#        150
#        11762
#        46890
#        75152
#        96385
#        112477
#        124910
#        147427
#        165347
#        202722
#        249095
#        280012
#        304405
#        334825
#
# Disc length: 4591 seconds
#
# Revision: 4
# Processed by: cddbd v1.5.2PL0 Copyright (c) Steve Scherf et al.
# Submitted via: ExactAudioCopy v0.95b4
#
DISCID=bb11ed0e
DTITLE=Dave Brubeck - The Essential Dave Brubeck [disc 1]
DYEAR=2003
DGENRE=Cool Jazz
TTITLE0=Indiana [1949]
TTITLE1=Perdido (live) [1953]
TTITLE2=Take the "A" Train (live) [1954]
TTITLE3=Le Souk (live) [1954]
TTITLE4=Audrey [1954]
TTITLE5=The Duke (live) [1955]
TTITLE6=In Your Own Sweet Way [1956]
TTITLE7=Weep No More [1956]
TTITLE8=Some Day My Prince Will Come [1957]
TTITLE9=Tangerine (live) [1958]
TTITLE10=Brandenburg Gate [1958]
TTITLE11=Three to Get Ready [1959]
TTITLE12=Blue Rondo a la Turk [1959]
TTITLE13=There'll Be Some Changes Made [1960]
EXTD=David Warren Brubeck (b.1920-12-06): piano\nPaul Desmond [Paul Em
EXTD=il Breitenfeld] (1924-11-25/1977-05-30) (2-6,9-14): alto sax\nRon
EXTD=Crotty (1-2), Bob Bates (3-6), Norman Bates (9), Eugene Wright (
EXTD=10,12-14), Joe Benjamin (11): bass\nCal Tjader (1), Lloyd Davis (
EXTD=2), Joe Dodge (3-6), Joe Morello (9-14): drums\nJimmy Rushing (14
EXTD=): vocal\n2CD: Columbia/Legacy C2K 86993 (2003-03-25), UPC 696998
EXTD=699328.
EXTT0=
EXTT1=
EXTT2=
EXTT3=
EXTT4=
EXTT5=
EXTT6=
EXTT7=
EXTT8=
EXTT9=
EXTT10=
EXTT11=
EXTT12=
EXTT13=
PLAYORDER=
